<svg xmlns="http://www.w3.org/2000/svg" viewBox="0 0 800 500" width="800" height="500">
  <defs>
    <linearGradient id="cardG" x1="0" y1="0" x2="1" y2="1">
      <stop offset="0%" stop-color="#1C2333"/>
      <stop offset="100%" stop-color="#1A1F2E"/>
    </linearGradient>
    <linearGradient id="dropGrad" x1="0" y1="0" x2="0" y2="1">
      <stop offset="0%" stop-color="#00A878" stop-opacity="0.04"/>
      <stop offset="100%" stop-color="#00A878" stop-opacity="0.02"/>
    </linearGradient>
  </defs>

  <!-- Background -->
  <rect width="800" height="500" fill="#0F1117" rx="8"/>

  <!-- Sidebar (minimal) -->
  <rect x="0" y="0" width="180" height="500" fill="#161B22" rx="8"/>
  <rect x="180" y="0" width="1" height="500" fill="#2D333B"/>
  <circle cx="28" cy="28" r="10" fill="#00A878"/>
  <text x="44" y="33" fill="#F1F5F9" font-family="system-ui" font-size="13" font-weight="700">Worthifast</text>

  <!-- Active: Factures -->
  <rect x="8" y="122" width="164" height="28" fill="#00A878" fill-opacity="0.12" rx="6"/>
  <text x="36" y="140" fill="#00A878" font-family="system-ui" font-size="11" font-weight="600">Factures</text>

  <g font-family="system-ui" font-size="11" fill="#8B949E">
    <text x="36" y="74">Tableau de bord</text>
    <text x="36" y="104">Clients</text>
    <text x="36" y="170">Comptabilite</text>
    <text x="36" y="196">Rapprochement</text>
    <text x="36" y="222">TVA / CA3</text>
  </g>

  <!-- Header -->
  <text x="200" y="36" fill="#F1F5F9" font-family="system-ui" font-size="16" font-weight="700">Import facture fournisseur</text>
  <text x="200" y="52" fill="#64748B" font-family="system-ui" font-size="10">OCR Tesseract + IA Mistral — extraction automatique</text>

  <!-- Left panel: Drop zone + PDF preview -->
  <rect x="200" y="68" width="280" height="420" fill="url(#cardG)" rx="8" stroke="#2D333B" stroke-width="0.5"/>

  <!-- Drop zone (top half) -->
  <rect x="212" y="80" width="256" height="120" fill="url(#dropGrad)" rx="8" stroke="#00A878" stroke-width="1" stroke-dasharray="6 4" stroke-opacity="0.4"/>
  <text x="340" y="128" fill="#64748B" font-family="system-ui" font-size="10" text-anchor="middle">Glissez votre facture ici</text>
  <text x="340" y="146" fill="#64748B" font-family="system-ui" font-size="8" text-anchor="middle">PDF, JPG, PNG, Excel, Word — max 50 Mo</text>
  <rect x="305" y="158" width="70" height="24" fill="#00A878" fill-opacity="0.15" rx="4"/>
  <text x="340" y="174" fill="#00A878" font-family="system-ui" font-size="9" font-weight="600" text-anchor="middle">Parcourir</text>

  <!-- PDF preview (simulated) -->
  <rect x="212" y="210" width="256" height="268" fill="#1A1F2E" rx="6" stroke="#2D333B" stroke-width="0.5"/>
  <text x="224" y="230" fill="#64748B" font-family="system-ui" font-size="8">Apercu du document</text>

  <!-- Simulated invoice content -->
  <rect x="224" y="240" width="232" height="226" fill="#FAFAFA" rx="4"/>
  <text x="340" y="260" fill="#1A1F2E" font-family="system-ui" font-size="10" font-weight="700" text-anchor="middle">LYRECO France</text>
  <text x="340" y="275" fill="#64748B" font-family="system-ui" font-size="7" text-anchor="middle">24 rue des Lilas, 69003 Lyon</text>
  <text x="340" y="286" fill="#64748B" font-family="system-ui" font-size="7" text-anchor="middle">SIRET: 732 829 320 00074</text>

  <line x1="240" y1="296" x2="440" y2="296" stroke="#E5E7EB" stroke-width="0.5"/>

  <text x="240" y="312" fill="#1A1F2E" font-family="system-ui" font-size="8" font-weight="600">FACTURE N 2026-0347</text>
  <text x="380" y="312" fill="#64748B" font-family="system-ui" font-size="8">Date: 15/03/2026</text>

  <text x="240" y="332" fill="#64748B" font-family="system-ui" font-size="7">A l'attention de:</text>
  <text x="240" y="344" fill="#1A1F2E" font-family="system-ui" font-size="8">Cabinet Moreau &amp; Associes</text>

  <!-- Table header in preview -->
  <rect x="240" y="356" width="216" height="16" fill="#F3F4F6" rx="2"/>
  <text x="248" y="367" fill="#6B7280" font-family="system-ui" font-size="6" font-weight="600">Description</text>
  <text x="380" y="367" fill="#6B7280" font-family="system-ui" font-size="6" font-weight="600">Qte</text>
  <text x="410" y="367" fill="#6B7280" font-family="system-ui" font-size="6" font-weight="600">PU HT</text>
  <text x="440" y="367" fill="#6B7280" font-family="system-ui" font-size="6" font-weight="600">Total</text>

  <text x="248" y="384" fill="#374151" font-family="system-ui" font-size="6">Ramettes papier A4 80g</text>
  <text x="380" y="384" fill="#374151" font-family="system-ui" font-size="6">40</text>
  <text x="410" y="384" fill="#374151" font-family="system-ui" font-size="6">24,00</text>
  <text x="440" y="384" fill="#374151" font-family="system-ui" font-size="6">960,00</text>

  <text x="248" y="398" fill="#374151" font-family="system-ui" font-size="6">Toner HP LaserJet Pro</text>
  <text x="380" y="398" fill="#374151" font-family="system-ui" font-size="6">4</text>
  <text x="410" y="398" fill="#374151" font-family="system-ui" font-size="6">120,00</text>
  <text x="440" y="398" fill="#374151" font-family="system-ui" font-size="6">480,00</text>

  <line x1="240" y1="408" x2="456" y2="408" stroke="#E5E7EB" stroke-width="0.5"/>
  <text x="380" y="420" fill="#374151" font-family="system-ui" font-size="7" font-weight="600">Total HT</text>
  <text x="440" y="420" fill="#374151" font-family="system-ui" font-size="7" font-weight="600">1 440,00</text>
  <text x="380" y="432" fill="#374151" font-family="system-ui" font-size="7">TVA 20%</text>
  <text x="440" y="432" fill="#374151" font-family="system-ui" font-size="7">288,00</text>
  <text x="380" y="446" fill="#1A1F2E" font-family="system-ui" font-size="8" font-weight="700">Total TTC</text>
  <text x="440" y="446" fill="#1A1F2E" font-family="system-ui" font-size="8" font-weight="700">1 728,00</text>

  <!-- OCR confidence badge -->
  <rect x="212" y="80" width="70" height="18" fill="#00A878" fill-opacity="0.15" rx="4"/>
  <text x="247" y="92" fill="#00A878" font-family="system-ui" font-size="8" font-weight="600" text-anchor="middle">OCR 94%</text>

  <!-- Right panel: Extracted data -->
  <rect x="496" y="68" width="286" height="420" fill="url(#cardG)" rx="8" stroke="#2D333B" stroke-width="0.5"/>
  <text x="510" y="90" fill="#F1F5F9" font-family="system-ui" font-size="12" font-weight="600">Donnees extraites</text>

  <!-- Status badge -->
  <rect x="650" y="78" width="120" height="18" fill="#00A878" fill-opacity="0.12" rx="9"/>
  <circle cx="662" cy="87" r="3" fill="#00A878"/>
  <text x="670" y="91" fill="#00A878" font-family="system-ui" font-size="8" font-weight="500">Extraction reussie</text>

  <!-- Field: Fournisseur -->
  <text x="510" y="118" fill="#64748B" font-family="system-ui" font-size="8" font-weight="600">FOURNISSEUR</text>
  <rect x="510" y="124" width="260" height="28" fill="#1A1F2E" rx="4" stroke="#2D333B" stroke-width="0.5"/>
  <text x="520" y="142" fill="#F1F5F9" font-family="system-ui" font-size="10">Lyreco France</text>

  <!-- Field: Numero -->
  <text x="510" y="168" fill="#64748B" font-family="system-ui" font-size="8" font-weight="600">NUMERO FACTURE</text>
  <rect x="510" y="174" width="260" height="28" fill="#1A1F2E" rx="4" stroke="#2D333B" stroke-width="0.5"/>
  <text x="520" y="192" fill="#F1F5F9" font-family="system-ui" font-size="10">2026-0347</text>

  <!-- Field: Date -->
  <text x="510" y="218" fill="#64748B" font-family="system-ui" font-size="8" font-weight="600">DATE</text>
  <rect x="510" y="224" width="120" height="28" fill="#1A1F2E" rx="4" stroke="#2D333B" stroke-width="0.5"/>
  <text x="520" y="242" fill="#F1F5F9" font-family="system-ui" font-size="10">15/03/2026</text>

  <!-- Field: Montant HT -->
  <text x="644" y="218" fill="#64748B" font-family="system-ui" font-size="8" font-weight="600">MONTANT HT</text>
  <rect x="644" y="224" width="126" height="28" fill="#1A1F2E" rx="4" stroke="#2D333B" stroke-width="0.5"/>
  <text x="654" y="242" fill="#F1F5F9" font-family="system-ui" font-size="10" font-weight="600">1 440,00 EUR</text>

  <!-- Field: TVA -->
  <text x="510" y="268" fill="#64748B" font-family="system-ui" font-size="8" font-weight="600">TVA</text>
  <rect x="510" y="274" width="120" height="28" fill="#1A1F2E" rx="4" stroke="#2D333B" stroke-width="0.5"/>
  <text x="520" y="292" fill="#F1F5F9" font-family="system-ui" font-size="10">288,00 EUR (20%)</text>

  <!-- Field: TTC -->
  <text x="644" y="268" fill="#64748B" font-family="system-ui" font-size="8" font-weight="600">TOTAL TTC</text>
  <rect x="644" y="274" width="126" height="28" fill="#1A1F2E" rx="4" stroke="#2D333B" stroke-width="0.5"/>
  <text x="654" y="292" fill="#F1F5F9" font-family="system-ui" font-size="10" font-weight="700">1 728,00 EUR</text>

  <!-- PCG Suggestion -->
  <text x="510" y="322" fill="#64748B" font-family="system-ui" font-size="8" font-weight="600">COMPTES PCG SUGGERES (IA Mistral)</text>

  <rect x="510" y="330" width="260" height="68" fill="#00A878" fill-opacity="0.06" rx="6" stroke="#00A878" stroke-opacity="0.2" stroke-width="0.5"/>

  <text x="522" y="348" fill="#8B949E" font-family="system-ui" font-size="8">Debit</text>
  <rect x="558" y="338" width="50" height="16" fill="#00A878" fill-opacity="0.15" rx="3"/>
  <text x="583" y="349" fill="#00A878" font-family="system-ui" font-size="9" font-weight="600" text-anchor="middle">606100</text>
  <text x="614" y="349" fill="#8B949E" font-family="system-ui" font-size="8">Fournitures de bureau</text>

  <text x="522" y="368" fill="#8B949E" font-family="system-ui" font-size="8">TVA</text>
  <rect x="558" y="358" width="50" height="16" fill="#00A878" fill-opacity="0.15" rx="3"/>
  <text x="583" y="369" fill="#00A878" font-family="system-ui" font-size="9" font-weight="600" text-anchor="middle">445660</text>
  <text x="614" y="369" fill="#8B949E" font-family="system-ui" font-size="8">TVA deductible / ABS</text>

  <text x="522" y="388" fill="#8B949E" font-family="system-ui" font-size="8">Credit</text>
  <rect x="558" y="378" width="50" height="16" fill="#00A878" fill-opacity="0.15" rx="3"/>
  <text x="583" y="389" fill="#00A878" font-family="system-ui" font-size="9" font-weight="600" text-anchor="middle">401000</text>
  <text x="614" y="389" fill="#8B949E" font-family="system-ui" font-size="8">Fournisseurs</text>

  <!-- CTA Buttons -->
  <rect x="510" y="410" width="170" height="34" fill="#00A878" rx="6"/>
  <text x="595" y="431" fill="#FFFFFF" font-family="system-ui" font-size="11" font-weight="600" text-anchor="middle">Valider et comptabiliser</text>

  <rect x="690" y="410" width="80" height="34" fill="#2D333B" rx="6" stroke="#3D444D" stroke-width="0.5"/>
  <text x="730" y="431" fill="#8B949E" font-family="system-ui" font-size="11" text-anchor="middle">Modifier</text>

  <!-- Processing badge -->
  <rect x="510" y="454" width="260" height="24" fill="#1A1F2E" rx="4"/>
  <text x="640" y="469" fill="#64748B" font-family="system-ui" font-size="8" text-anchor="middle">Traite en 28 secondes — Tesseract OCR + Mistral IA</text>
</svg>